<mxfile host="65bd71144e">
    <diagram id="hgFjx4m8gNqnTC09Urlb" name="Page-1">
        <mxGraphModel dx="1291" dy="435" grid="1" gridSize="10" guides="1" tooltips="1" connect="1" arrows="1" fold="1" page="1" pageScale="1" pageWidth="1100" pageHeight="850" background="#FFFFFF" math="0" shadow="0">
            <root>
                <mxCell id="0"/>
                <mxCell id="1" parent="0"/>
                <mxCell id="85" style="edgeStyle=none;rounded=0;sketch=0;html=1;strokeWidth=2;fontFamily=Verdana;fontSize=14;endSize=6;entryX=0;entryY=0.25;entryDx=0;entryDy=0;exitX=0.75;exitY=0.031;exitDx=0;exitDy=0;exitPerimeter=0;" parent="1" source="2" target="4" edge="1">
                    <mxGeometry relative="1" as="geometry">
                        <mxPoint x="130" y="110" as="targetPoint"/>
                        <Array as="points">
                            <mxPoint x="80" y="100"/>
                        </Array>
                    </mxGeometry>
                </mxCell>
                <mxCell id="86" style="edgeStyle=none;rounded=0;sketch=0;html=1;strokeWidth=2;fontFamily=Verdana;fontSize=14;endSize=6;exitX=0.752;exitY=1.003;exitDx=0;exitDy=0;exitPerimeter=0;" parent="1" source="2" edge="1">
                    <mxGeometry relative="1" as="geometry">
                        <mxPoint x="130" y="170" as="targetPoint"/>
                        <Array as="points">
                            <mxPoint x="80" y="170"/>
                        </Array>
                    </mxGeometry>
                </mxCell>
                <mxCell id="2" value="MARVEL Data" style="shape=datastore;whiteSpace=wrap;html=1;fillColor=#ffff88;strokeColor=#36393d;fontSize=14;fontFamily=Verdana;" parent="1" vertex="1">
                    <mxGeometry x="20" y="110" width="80" height="50" as="geometry"/>
                </mxCell>
                <mxCell id="12" style="edgeStyle=none;rounded=0;sketch=0;html=1;fontSize=14;entryX=0;entryY=0.5;entryDx=0;entryDy=0;fontFamily=Verdana;" parent="1" source="4" target="13" edge="1">
                    <mxGeometry relative="1" as="geometry">
                        <mxPoint x="320" y="110" as="targetPoint"/>
                    </mxGeometry>
                </mxCell>
                <mxCell id="14" value="Mapping" style="edgeLabel;html=1;align=center;verticalAlign=middle;resizable=0;points=[];fontSize=14;fontFamily=Verdana;" parent="12" vertex="1" connectable="0">
                    <mxGeometry x="-0.2899" relative="1" as="geometry">
                        <mxPoint x="12" as="offset"/>
                    </mxGeometry>
                </mxCell>
                <mxCell id="4" value="MARVEL Cost" style="shape=ext;double=1;rounded=1;fillColor=#ffff88;strokeColor=#36393d;verticalAlign=top;spacingTop=7;spacingBottom=7;spacingRight=3;spacingLeft=5;fontFamily=Verdana;horizontal=1;fontSize=14;fontStyle=0;spacing=-1;whiteSpace=wrap;html=1;align=center;" parent="1" vertex="1">
                    <mxGeometry x="134" y="90" width="140" height="40" as="geometry"/>
                </mxCell>
                <mxCell id="22" style="edgeStyle=none;rounded=0;sketch=0;html=1;fontSize=14;exitX=1;exitY=0.25;exitDx=0;exitDy=0;fontFamily=Verdana;entryX=0.002;entryY=0.841;entryDx=0;entryDy=0;entryPerimeter=0;" parent="1" source="5" target="16" edge="1">
                    <mxGeometry relative="1" as="geometry">
                        <mxPoint x="570" y="150" as="targetPoint"/>
                    </mxGeometry>
                </mxCell>
                <mxCell id="5" value="MARVEL Design Params" style="shape=ext;double=1;rounded=1;fillColor=#ffff88;strokeColor=#36393d;verticalAlign=top;spacingTop=7;spacingBottom=7;spacingRight=3;spacingLeft=5;fontFamily=Verdana;horizontal=1;fontSize=14;fontStyle=0;spacing=-1;whiteSpace=wrap;html=1;align=center;" parent="1" vertex="1">
                    <mxGeometry x="134" y="140" width="179" height="40" as="geometry"/>
                </mxCell>
                <mxCell id="21" style="edgeStyle=none;rounded=0;sketch=0;html=1;entryX=0;entryY=0.286;entryDx=0;entryDy=0;entryPerimeter=0;fontSize=14;fontFamily=Verdana;" parent="1" source="13" target="16" edge="1">
                    <mxGeometry relative="1" as="geometry"/>
                </mxCell>
                <mxCell id="13" value="Nuclear Code of Account for Cost Estimation" style="shape=ext;double=0;rounded=0;whiteSpace=wrap;html=1;fontFamily=Verdana;fontSize=14;fillColor=#cdeb8b;strokeColor=#000000;shadow=1;glass=0;fontStyle=0;spacingTop=7;spacing=0;spacingLeft=1;spacingBottom=10;spacingRight=2;align=center;" parent="1" vertex="1">
                    <mxGeometry x="377" y="90" width="180" height="40" as="geometry"/>
                </mxCell>
                <mxCell id="58" style="edgeStyle=none;rounded=0;sketch=0;html=1;fontFamily=Verdana;fontSize=14;exitX=0.75;exitY=1;exitDx=0;exitDy=0;entryX=0.757;entryY=0.086;entryDx=0;entryDy=0;entryPerimeter=0;endSize=9;strokeWidth=2;" parent="1" source="16" target="57" edge="1">
                    <mxGeometry relative="1" as="geometry">
                        <mxPoint x="720" y="310" as="targetPoint"/>
                    </mxGeometry>
                </mxCell>
                <mxCell id="16" value="Cost Equations" style="shape=ext;double=0;rounded=1;whiteSpace=wrap;html=1;fontFamily=Verdana;fontSize=14;fillColor=#eeeeee;strokeColor=#36393d;shadow=0;glass=0;fontStyle=0;labelBorderColor=none;strokeWidth=2;align=center;" parent="1" vertex="1">
                    <mxGeometry x="600" y="90" width="160" height="70" as="geometry"/>
                </mxCell>
                <mxCell id="60" style="edgeStyle=none;rounded=0;sketch=0;html=1;fontFamily=Verdana;fontSize=14;exitX=0.996;exitY=-0.015;exitDx=0;exitDy=0;exitPerimeter=0;" parent="1" source="25" edge="1">
                    <mxGeometry relative="1" as="geometry">
                        <mxPoint x="720" y="290" as="targetPoint"/>
                    </mxGeometry>
                </mxCell>
                <mxCell id="80" style="edgeStyle=none;rounded=0;sketch=0;html=1;strokeWidth=2;fontFamily=Verdana;fontSize=14;endSize=6;exitX=0.994;exitY=0.073;exitDx=0;exitDy=0;exitPerimeter=0;entryX=0;entryY=0.5;entryDx=0;entryDy=0;" parent="1" source="23" target="76" edge="1">
                    <mxGeometry relative="1" as="geometry">
                        <mxPoint x="230" y="250" as="targetPoint"/>
                    </mxGeometry>
                </mxCell>
                <mxCell id="23" value="MARVEL-like Reactor Design Parameters" style="swimlane;fontStyle=0;childLayout=stackLayout;horizontal=1;startSize=40;horizontalStack=0;resizeParent=1;resizeParentMax=0;resizeLast=0;collapsible=1;marginBottom=0;whiteSpace=wrap;html=1;fontSize=14;fontFamily=Verdana;fillColor=#cce5ff;strokeColor=#36393d;" parent="1" vertex="1">
                    <mxGeometry x="20" y="220" width="180" height="280" as="geometry"/>
                </mxCell>
                <mxCell id="24" value="Enrichment" style="text;strokeColor=none;fillColor=none;align=left;verticalAlign=middle;spacingLeft=4;spacingRight=4;overflow=hidden;points=[[0,0.5],[1,0.5]];portConstraint=eastwest;rotatable=0;whiteSpace=wrap;html=1;fontSize=14;fontFamily=Verdana;" parent="23" vertex="1">
                    <mxGeometry y="40" width="180" height="30" as="geometry"/>
                </mxCell>
                <mxCell id="25" value="Fuel Composition" style="text;strokeColor=none;fillColor=none;align=left;verticalAlign=middle;spacingLeft=4;spacingRight=4;overflow=hidden;points=[[0,0.5],[1,0.5]];portConstraint=eastwest;rotatable=0;whiteSpace=wrap;html=1;fontSize=14;fontFamily=Verdana;" parent="23" vertex="1">
                    <mxGeometry y="70" width="180" height="30" as="geometry"/>
                </mxCell>
                <mxCell id="26" value="Fuel Pin Dimensions" style="text;strokeColor=none;fillColor=none;align=left;verticalAlign=middle;spacingLeft=4;spacingRight=4;overflow=hidden;points=[[0,0.5],[1,0.5]];portConstraint=eastwest;rotatable=0;whiteSpace=wrap;html=1;fontSize=14;fontFamily=Verdana;" parent="23" vertex="1">
                    <mxGeometry y="100" width="180" height="30" as="geometry"/>
                </mxCell>
                <mxCell id="27" value="Gap between Pins" style="text;strokeColor=none;fillColor=none;align=left;verticalAlign=middle;spacingLeft=4;spacingRight=4;overflow=hidden;points=[[0,0.5],[1,0.5]];portConstraint=eastwest;rotatable=0;whiteSpace=wrap;html=1;fontFamily=Verdana;fontSize=14;" parent="23" vertex="1">
                    <mxGeometry y="130" width="180" height="30" as="geometry"/>
                </mxCell>
                <mxCell id="28" value="Power" style="text;strokeColor=none;fillColor=none;align=left;verticalAlign=middle;spacingLeft=4;spacingRight=4;overflow=hidden;points=[[0,0.5],[1,0.5]];portConstraint=eastwest;rotatable=0;whiteSpace=wrap;html=1;fontFamily=Verdana;fontSize=14;" parent="23" vertex="1">
                    <mxGeometry y="160" width="180" height="30" as="geometry"/>
                </mxCell>
                <mxCell id="29" value="Number of rings" style="text;strokeColor=none;fillColor=none;align=left;verticalAlign=middle;spacingLeft=4;spacingRight=4;overflow=hidden;points=[[0,0.5],[1,0.5]];portConstraint=eastwest;rotatable=0;whiteSpace=wrap;html=1;fontFamily=Verdana;fontSize=14;" parent="23" vertex="1">
                    <mxGeometry y="190" width="180" height="30" as="geometry"/>
                </mxCell>
                <mxCell id="32" value="Refllector Thickness" style="text;strokeColor=none;fillColor=none;align=left;verticalAlign=middle;spacingLeft=4;spacingRight=4;overflow=hidden;points=[[0,0.5],[1,0.5]];portConstraint=eastwest;rotatable=0;whiteSpace=wrap;html=1;fontFamily=Verdana;fontSize=14;" parent="23" vertex="1">
                    <mxGeometry y="220" width="180" height="30" as="geometry"/>
                </mxCell>
                <mxCell id="33" value="..." style="text;strokeColor=none;fillColor=none;align=left;verticalAlign=middle;spacingLeft=4;spacingRight=4;overflow=hidden;points=[[0,0.5],[1,0.5]];portConstraint=eastwest;rotatable=0;whiteSpace=wrap;html=1;fontFamily=Verdana;fontSize=14;" parent="23" vertex="1">
                    <mxGeometry y="250" width="180" height="30" as="geometry"/>
                </mxCell>
                <mxCell id="59" style="edgeStyle=none;rounded=0;sketch=0;html=1;fontFamily=Verdana;fontSize=14;exitX=0.996;exitY=0.662;exitDx=0;exitDy=0;exitPerimeter=0;" parent="1" source="36" edge="1">
                    <mxGeometry relative="1" as="geometry">
                        <mxPoint x="720" y="320" as="targetPoint"/>
                        <Array as="points">
                            <mxPoint x="210" y="610"/>
                            <mxPoint x="210" y="320"/>
                        </Array>
                    </mxGeometry>
                </mxCell>
                <mxCell id="34" value="Other Parameters &amp;amp; Economic info" style="swimlane;fontStyle=0;childLayout=stackLayout;horizontal=1;startSize=40;horizontalStack=0;resizeParent=1;resizeParentMax=0;resizeLast=0;collapsible=1;marginBottom=0;whiteSpace=wrap;html=1;fontSize=14;fontFamily=Verdana;fillColor=#cce5ff;strokeColor=#36393d;" parent="1" vertex="1">
                    <mxGeometry x="20" y="520" width="180" height="280" as="geometry"/>
                </mxCell>
                <mxCell id="35" value="Number of Sensors" style="text;strokeColor=none;fillColor=none;align=left;verticalAlign=middle;spacingLeft=4;spacingRight=4;overflow=hidden;points=[[0,0.5],[1,0.5]];portConstraint=eastwest;rotatable=0;whiteSpace=wrap;html=1;fontSize=14;fontFamily=Verdana;" parent="34" vertex="1">
                    <mxGeometry y="40" width="180" height="30" as="geometry"/>
                </mxCell>
                <mxCell id="36" value="Startup Duration" style="text;strokeColor=none;fillColor=none;align=left;verticalAlign=middle;spacingLeft=4;spacingRight=4;overflow=hidden;points=[[0,0.5],[1,0.5]];portConstraint=eastwest;rotatable=0;whiteSpace=wrap;html=1;fontSize=14;fontFamily=Verdana;" parent="34" vertex="1">
                    <mxGeometry y="70" width="180" height="30" as="geometry"/>
                </mxCell>
                <mxCell id="37" value="Construction Duration" style="text;strokeColor=none;fillColor=none;align=left;verticalAlign=middle;spacingLeft=4;spacingRight=4;overflow=hidden;points=[[0,0.5],[1,0.5]];portConstraint=eastwest;rotatable=0;whiteSpace=wrap;html=1;fontSize=14;fontFamily=Verdana;" parent="34" vertex="1">
                    <mxGeometry y="100" width="180" height="30" as="geometry"/>
                </mxCell>
                <mxCell id="38" value="Refueling Period" style="text;strokeColor=none;fillColor=none;align=left;verticalAlign=middle;spacingLeft=4;spacingRight=4;overflow=hidden;points=[[0,0.5],[1,0.5]];portConstraint=eastwest;rotatable=0;whiteSpace=wrap;html=1;fontFamily=Verdana;fontSize=14;" parent="34" vertex="1">
                    <mxGeometry y="130" width="180" height="30" as="geometry"/>
                </mxCell>
                <mxCell id="39" value="Maintenance Downtime" style="text;strokeColor=none;fillColor=none;align=left;verticalAlign=middle;spacingLeft=4;spacingRight=4;overflow=hidden;points=[[0,0.5],[1,0.5]];portConstraint=eastwest;rotatable=0;whiteSpace=wrap;html=1;fontFamily=Verdana;fontSize=14;" parent="34" vertex="1">
                    <mxGeometry y="160" width="180" height="30" as="geometry"/>
                </mxCell>
                <mxCell id="40" value="Plant Lifetime" style="text;strokeColor=none;fillColor=none;align=left;verticalAlign=middle;spacingLeft=4;spacingRight=4;overflow=hidden;points=[[0,0.5],[1,0.5]];portConstraint=eastwest;rotatable=0;whiteSpace=wrap;html=1;fontFamily=Verdana;fontSize=14;" parent="34" vertex="1">
                    <mxGeometry y="190" width="180" height="30" as="geometry"/>
                </mxCell>
                <mxCell id="42" value="Interest Rate" style="text;strokeColor=none;fillColor=none;align=left;verticalAlign=middle;spacingLeft=4;spacingRight=4;overflow=hidden;points=[[0,0.5],[1,0.5]];portConstraint=eastwest;rotatable=0;whiteSpace=wrap;html=1;fontFamily=Verdana;fontSize=14;" parent="34" vertex="1">
                    <mxGeometry y="220" width="180" height="30" as="geometry"/>
                </mxCell>
                <mxCell id="43" value="..." style="text;strokeColor=none;fillColor=none;align=left;verticalAlign=middle;spacingLeft=4;spacingRight=4;overflow=hidden;points=[[0,0.5],[1,0.5]];portConstraint=eastwest;rotatable=0;whiteSpace=wrap;html=1;fontFamily=Verdana;fontSize=14;" parent="34" vertex="1">
                    <mxGeometry y="250" width="180" height="30" as="geometry"/>
                </mxCell>
                <mxCell id="49" style="edgeStyle=none;rounded=0;sketch=0;html=1;entryX=0;entryY=0.5;entryDx=0;entryDy=0;fontFamily=Verdana;fontSize=14;exitX=0.908;exitY=0.994;exitDx=0;exitDy=0;exitPerimeter=0;" parent="1" target="47" edge="1">
                    <mxGeometry relative="1" as="geometry">
                        <mxPoint x="320.02204000000006" y="249.88" as="sourcePoint"/>
                        <Array as="points">
                            <mxPoint x="320" y="260"/>
                        </Array>
                    </mxGeometry>
                </mxCell>
                <mxCell id="50" style="edgeStyle=none;rounded=0;sketch=0;html=1;entryX=0;entryY=0.5;entryDx=0;entryDy=0;fontFamily=Verdana;fontSize=14;exitX=0.902;exitY=0.026;exitDx=0;exitDy=0;exitPerimeter=0;" parent="1" target="46" edge="1">
                    <mxGeometry relative="1" as="geometry">
                        <mxPoint x="319.49325999999996" y="230.5200000000001" as="sourcePoint"/>
                        <Array as="points">
                            <mxPoint x="320" y="220"/>
                        </Array>
                    </mxGeometry>
                </mxCell>
                <mxCell id="61" style="edgeStyle=none;rounded=0;sketch=0;html=1;fontFamily=Verdana;fontSize=14;" parent="1" source="46" edge="1">
                    <mxGeometry relative="1" as="geometry">
                        <mxPoint x="720" y="220" as="targetPoint"/>
                    </mxGeometry>
                </mxCell>
                <mxCell id="46" value="Fuel lifetime" style="shape=ext;double=0;rounded=0;whiteSpace=wrap;html=1;fontFamily=Verdana;fontSize=14;shadow=1;glass=0;fontStyle=0;spacingTop=7;spacing=0;spacingLeft=1;spacingBottom=10;spacingRight=2;align=center;" parent="1" vertex="1">
                    <mxGeometry x="350" y="210" width="100" height="20" as="geometry"/>
                </mxCell>
                <mxCell id="47" value="Heat Flux" style="shape=ext;double=0;rounded=0;whiteSpace=wrap;html=1;fontFamily=Verdana;fontSize=14;shadow=1;glass=0;fontStyle=0;spacingTop=7;spacing=0;spacingLeft=1;spacingBottom=10;spacingRight=2;align=center;" parent="1" vertex="1">
                    <mxGeometry x="350" y="250" width="100" height="20" as="geometry"/>
                </mxCell>
                <mxCell id="82" style="edgeStyle=none;rounded=0;sketch=0;html=1;entryX=1.008;entryY=0.41;entryDx=0;entryDy=0;strokeWidth=2;fontFamily=Verdana;fontSize=14;endSize=6;entryPerimeter=0;" parent="1" target="67" edge="1">
                    <mxGeometry relative="1" as="geometry">
                        <mxPoint x="560" y="401" as="sourcePoint"/>
                    </mxGeometry>
                </mxCell>
                <mxCell id="83" style="edgeStyle=none;rounded=0;sketch=0;html=1;entryX=1;entryY=0.5;entryDx=0;entryDy=0;strokeWidth=2;fontFamily=Verdana;fontSize=14;endSize=6;" parent="1" target="68" edge="1">
                    <mxGeometry relative="1" as="geometry">
                        <mxPoint x="560" y="430" as="sourcePoint"/>
                    </mxGeometry>
                </mxCell>
                <mxCell id="84" style="edgeStyle=none;rounded=0;sketch=0;html=1;entryX=1;entryY=0.5;entryDx=0;entryDy=0;strokeWidth=2;fontFamily=Verdana;fontSize=14;endSize=6;" parent="1" target="66" edge="1">
                    <mxGeometry relative="1" as="geometry">
                        <mxPoint x="560" y="370" as="sourcePoint"/>
                    </mxGeometry>
                </mxCell>
                <mxCell id="57" value="New Detailed Cost Esimtate for a MARVEL-like Reactor&amp;nbsp;&lt;br style=&quot;font-size: 14px;&quot;&gt;(Nuclear Code of Account)" style="shape=ext;double=0;rounded=1;whiteSpace=wrap;html=1;fontFamily=Verdana;fontSize=14;fillColor=#cdeb8b;strokeColor=#000000;shadow=1;glass=0;fontStyle=0;spacingTop=7;spacing=0;spacingLeft=1;spacingBottom=10;spacingRight=2;align=center;perimeterSpacing=11;strokeWidth=2;" parent="1" vertex="1">
                    <mxGeometry x="562.28" y="360" width="200" height="100" as="geometry"/>
                </mxCell>
                <mxCell id="81" style="edgeStyle=none;rounded=0;sketch=0;html=1;strokeWidth=2;fontFamily=Verdana;fontSize=14;endSize=6;exitX=0.789;exitY=-0.039;exitDx=0;exitDy=0;exitPerimeter=0;entryX=0.761;entryY=0.898;entryDx=0;entryDy=0;entryPerimeter=0;" parent="1" source="63" target="57" edge="1">
                    <mxGeometry relative="1" as="geometry">
                        <mxPoint x="722" y="450" as="targetPoint"/>
                    </mxGeometry>
                </mxCell>
                <mxCell id="63" value="Addtional Correlations from literature" style="shape=ext;double=0;rounded=1;whiteSpace=wrap;html=1;fontFamily=Verdana;fontSize=14;fillColor=#eeeeee;strokeColor=#36393d;shadow=0;glass=0;fontStyle=0;labelBorderColor=none;strokeWidth=2;align=center;" parent="1" vertex="1">
                    <mxGeometry x="570" y="507" width="190" height="50" as="geometry"/>
                </mxCell>
                <mxCell id="66" value="Capital Cost" style="shape=ext;double=0;rounded=0;whiteSpace=wrap;html=1;fontFamily=Verdana;fontSize=14;shadow=1;glass=0;fontStyle=0;spacingTop=7;spacing=0;spacingLeft=1;spacingBottom=10;spacingRight=2;align=center;fillColor=#ffcc99;strokeColor=#36393d;" parent="1" vertex="1">
                    <mxGeometry x="340" y="361" width="120" height="20" as="geometry"/>
                </mxCell>
                <mxCell id="67" value="Annualized Cost" style="shape=ext;double=0;rounded=0;whiteSpace=wrap;html=1;fontFamily=Verdana;fontSize=14;shadow=1;glass=0;fontStyle=0;spacingTop=7;spacing=0;spacingLeft=1;spacingBottom=10;spacingRight=2;align=center;fillColor=#ffcc99;strokeColor=#36393d;" parent="1" vertex="1">
                    <mxGeometry x="340" y="391" width="120" height="20" as="geometry"/>
                </mxCell>
                <mxCell id="68" value="LCOE" style="shape=ext;double=0;rounded=0;whiteSpace=wrap;html=1;fontFamily=Verdana;fontSize=14;shadow=1;glass=0;fontStyle=0;spacingTop=7;spacing=0;spacingLeft=1;spacingBottom=10;spacingRight=2;align=center;fillColor=#ffcc99;strokeColor=#36393d;" parent="1" vertex="1">
                    <mxGeometry x="340" y="421" width="120" height="20" as="geometry"/>
                </mxCell>
                <mxCell id="73" value="" style="rounded=0;whiteSpace=wrap;html=1;fillColor=none;fontSize=14;" parent="1" vertex="1">
                    <mxGeometry x="9.999999999999986" y="60" width="797.72" height="760" as="geometry"/>
                </mxCell>
                <mxCell id="76" value="" style="shape=image;imageAspect=0;aspect=fixed;verticalLabelPosition=bottom;verticalAlign=top;rounded=1;glass=0;sketch=0;strokeWidth=2;fontFamily=Verdana;fontSize=14;image=data:image/png,iVBORw0KGgoAAAANSUhEUgAAAdgAAABrCAMAAADjLmPEAAAAwFBMVEX///+jHzRlZWViYmJeXl5bW1ufBSZ7e3ugEivAcXvOnKGeACBqampZWVmeAB74+PiRkZHh4eHu7u7NkZnlzM/Ro6hwcHDQ0NCySFfiv8SiGTDW1tadABugESuCgoLZ2dmIiIicABWbm5u6urqtra2goKDIyMj37O7p6en05uioqKi3t7fs1di8ZnKoL0GbABHHhI2zUV6nKj63XGjeuL3ZrLKsPEzBeYLIhY6/bHexSlnOlZzu3N63V2XgusCYAAD9kLe5AAAScUlEQVR4nO1dWUPisBYGuqCWUmAApVBWQUTcFWccZ+7//1eXbjTn5KRNKiN4b78HH6RtmnzJyVnTUkkeTvvl7PRxUw6xubj98dq7Uri/wBHi+vVtM6hbpueWY7iuZ1qT8u3vdcHuN8X65wWgFMAzB3enxcr9frj+cWeZAlLjtXtiuaftQ79oARW0n+8zWI0X7uDp9dAvW0AWvffBiQyr4bq1ns4Kifwd0H6sSy1Whtq7zqFfukAWrn5Z8qs1oXZT7LXHjbOBp0xrQO3ktpDHx4vrP/VctPrwvN6hX7+AAC+uuhRmFm394dAdKEDiTVFp4mBeFOL4+OA8Wp+jdYsTa33obhRAuN7k05og3PrLoTtSAOCjvA9et6gXJu0x4VrOgSiDQcHs8eBDFMPJg/uC2WPBdXmPvG6lcREWOA44m8+YrwTMwlVxFHjck960g2t+HLpPBUqlt8/brxyz5UN3qkDpZf+8boXx7aG79b8Mx5G4aM+KUwxLQYFqjRarxnBYrVaH4+nloinz2v+f+Gifvd0+P242F8/Pvx5e29cp1z7ve4ON4Elus/1VVzMMXYuhG3pleNPcyzh8PX5uLlj8yrwBXH6xSbEUnd7pk2eZ3okb4sSzLO/u7UWwDDqDf8Nr+eRRYhyWK93WtQqGptvdm5bE/UeHX6bLYpLlYH2wwPXWmejC9qlVJ5wNrmfdP1M2yNXkH/FaLg8yhfFovF2dAmiGNl1mPeD4cIoMRzN9W1mb6HIBsb3HidgiPanfdbhmbgemBPIxa6V3qjk2+LXKQtfn3263xcR6b6mXY0OTJrb9aGXkAVs4VfTqrCOBs3x6s5kad59n0BpQq80UB/bQwMSWrbRcsFecr0IR68iEyV3rMU2REr5uPgUrxU3RrAiFMIA9/F5bLUesuxFffMWJQoLY9pOcwPTyOHKv8xErlkMzieUaQqv01d/3cOCILYv1odItN6w8sR35rJZJjsyk3/m2WU8gHqaGJK0+s/qN+vseDDyxZVMkI3sT/lpM7A8Vo8W6VdZJnKdcXgzBLjuWE8M7cbxSfd3DgSDWE9l9d/yYYmLf1JJGc+Sc9fKZuxbVkCKv34pZgtjygDZmfxBSEBGryGvZddU1qPd8S5bwpExVed0y+22UY4pY94ma3h/U7gaJ/a26mrwcqYTrSQ5et33iHnRD7q+abhi2bRuEG8qHca7+xgcBRSy9I5GxUkAssQf7Q2pa9YFfi863VM8VBn/LpT8N8Bwa2QSrhj6+WfSXy9H5rFEhvVH6N3FVkMRSxixnwnLEXhEy0rXMx7OX9sdHu9f5Vbbg3MiZbHaVh9eyhyarw7Om6WOwHptzjbhomOulvxw0se4Fvs6hpSxLLB+dca134PJfP5SZ1WblrcM4y7Nk3Tv4EH6DNcZcJKe10jiJbGRus8vF5Xw6na5mI0mfRmsU3XG5aKq4QZzmbOXfdtPnndk0sbwxK3D5MMTyS9q64ETt1W8vfpCZRJKcbICnEOp5NqD3aYQ3WE1bUGO3rOIJoFXisW9Uhwmq0SsuV13d0P3gn67blWF2aGh5M6zY8R2GURvP+FuGANHvzXl3d5tWvUFbhIDY8gDqT22BkzYh1uHC5IOfVD+ub8O1773v3mSaxEBFMIBvgN7Ms4gFc3WIVqLWFTHA+TD0efRLlX1vO+iOM4da13bQG6kR3dFYR2qafwtegDUwGMGbOg3QkmZol+AWEbEnz+xVzkawRpLRwsaQK0wQfPFTwhnNm1s8BDQNTMg/OZIZQY8WSHPSqmKdiNOe7WgOVFlGAmL7hONZs6fCZy8bNqV8c7fUwK9+8wteaze67HwQEVu2WGP2tyiqsiOW24NTEj+vNqbLuLfmMuakPmWfcJ0jygOMuCpaJcL16uMSMauviIf4xN6QNFX02oh+8ExgU/m3ADWOIxa/UviDxrQjJNa9SyYNacJCYrEPd5JqyZxOGLUbS0UaNhBPDzn0p0GyyWJTR09PgGmgqWeE/8bEXhIGVDjiOqVwbYWpuLuazUpWTOyKvlOrJIMkJLZsJlvku/iimFikz1g/UkeqxBiVhN1BvjQwM65yuIzNJJrUgHPJyPLuV9D1oZ6FiCVXUfwrz2yLU8sgDEZGQWKdG+EMqkoQm5j0r2KHUkxsD8pGqTSjCEvRW+KOAq31VV0Ye8lMhU1q3ax3PIecaePgv4BYXTjaAThmnUqWoGIc04DY2o14Rhi7dZ5CbByZpRwPmFhkDZkKrsKFZORM6wKFQqTOpRB7K2jSzg60jhELLY7YLJ5suM861ewNKJkMgNjUlvRYWYDEInkaeoagCw9eEhGLJKN3Ks9rKWX+QUCB2b5XJTZJIZhCRqr8S2GgTTn0GEtww7RSA/NSKgCx0ytq2ddG0OMlC4j1kE7i+XokNGHdzQN7R0TsGgprlQWLRjn1pYHqykf9s7BL1KuBJg3SM4EASQxNWSVioV7PiSnfzcB5uXZ7hDyxFZ0itr6Gq9PznUNQ5t2vgf4bEQt1YvddgVdOyomhNdj7+DydLNzHziFKrmYAypVQk6OJ1QxbN6jgECOMW+hXXe825vP5sGLQWp0CsXErkNg2SlCo95AJa55CT0RE7C8g0E2lZKaqwksDq4SKD6citnf6YLlEmlAGmpDYYL+niDUq00Vz2exfDjmbltHrkSA2plHHWosuEtGOiFjNDy4SOe6xLEbEIm+du/kAQtZ9ckhiobEzUCpdTGMSdwbsho6qy7geGc8zMHiSmUxIf2mRxGp64rJtjjmPVbxkoSGgaYzyhozbaMlyxGr69HzZajVnVayLx/MUE4u2LjR0fgCVINaB/n9LhVcVYtF2qFqdZ0VOE+jqMuSSD+GOEag1HLF6FUj1GWJ2JxuAWqFVoHcEeEO0WvA/TKzR2M2fc+xqjvZljtgrV7wOTD+LkyD2Gi7rP1IjFUOBV6xaKmbJxMRC94QmV7+x4mcDJlbHoVrsBQ8DBWiH1fHEgn6PQP9GxBps6tUSD1LYCEdsqSfMW3LL/j0EsW1wi0dGdYSQZjUYBRDCWKuZPDGxSF2Ti4BC+R2IDs7hzDn7UawhCuWClbyLFe0AtnMt0KXRPgAnENaww/7wxIqz7UP/L0Es9DuJ6nkEUCK2YoD1pVYYICBWLtcFDl9AESKWcjhDqR/JYuAct/nmgUQJzBdIrI0aQqZY+CtBrMjTFHlusolVy/BXIxbqsGomD01sbU/EwvhTBAe+fbBjAkmsEXcBrT1gEfqKscSHe7mY2NIL6Rt23TDsdVhikf9PqUqr/hlRjIjlRTG9V1/CJesPOnA821REj+UxaAkQy6nxS8kVK6gtj+d7NrFqOWpdNWKRyaPiMo7NsHEe5ekmQ3kSmMNw0ANXJOBao25iZXGwpAGxnBrvQN5TiKWEsRenKGUT+1tqpGLIhWOZfoE4iYrJM4ki7dCJacgdRjCH5o6/0ACxohw3FAIqIdrGVH4XS30wkQFzNjcTu6CNFGJLL7xm7Mb5BwSx0FV8onZOS0ORWK0GZKdClkzsK0aWi1xyP5S7BmfHYo0mBmgsyL1AElznAHzGgSULlyS3d8gTywvjpOyDIBYeM0Ak3afhUrXQAhoI16DtNOzeCyoblPrCA4q7UOOCxApuBHuz35aj4PgN0KJyngAUiMXC2EsywSjPE1RO75WS5RfKFTRQeEoXBrhxH6DfgDA/CYygEhRs9FAUC27sc8SqdnevxOKsCTdJBKN8xVCFsZQqN/oKJapRz2CWjKwtu6sFQLEVqU0Wiu9wlQNiazLd8zUsRzJjJIZP1B6JLT2yP7DnrlDEvoHBzTjHAkG1o5XYzxaDLj7hkThOutA+4Hw/xEvCW0KfNdwsBXdCYhvbRylO5H0Ty9r+HpuSSxHbQeJQqeq1q6g9cUlKF3ImT1KWhRJeeW2EA3LbhSaS1B57/llRvG9iS53EkHBZoihiP1B4R8mSVVWLK9hG70maPLteoNw0iSULJ19kS/MJ4wRm2POrqjztndjEkIAHYFHEIj+Bu1FRn6STnliAzj3LmDwukzmJpD9vGeJXRDMhDEVA5UmQFA6M5uBGZO5kYr/KUyk5nR/lklLElh6gBpNyQAmPpvomiwsDJhLEmkyqM5LFWfmnLTwRwqGtcpwRAIMe7M1AQtUamXD2TWypEwpYdNgISSwu2rIUkigc9U0W+wN+Spg8bM0vnkukAz95QRyfi3KvoEuRnhx96AzxlzV0WUjJtj0TG1YA4A2TJBan+aadFrXF1QXrdpTPU2R6B0weR8LkeWKHEGfQgdA1Bq7wiCcVckaRhxigoL7PCdjhpVIk907sh4U0Yh80sTgzP/X85487b8II63NlS3Y7uKpJMh442LWPxb8hVqAwrzt3f5XSqCBwDpz/vxZQp6QK5PdNbOmszp/6RBNbwkNrik/I/etv3vWEWWUnGzeKEgsW9Y1LejXGtFB0uBKbnUMDSWiqAoi0mGGgXaB0Aeyd2NIj/+kaAbEdjtk/tDXrnIZOrUHCrFQhJRxEMBwyiagmfIsm1ySqXIyw4LK4E+MI5zzxwhgt9ohEaAHRe/MUdHD/xH7w1VUCYvliGs+lztvs7Y6hSKSxsl6MlGKJBWvi8j++ElGzxzjSuajyVyUZF1yWIo6U4jrJKEsfJbMRiltraIAct/0TS0BELO8mcK1b/MD28yDhfyLw8UkQC/omk/k04U4Kq/FtakaVOSp+tOoSJ2gyGRx8XjGwebjjK3a/wnxxntlzv+5KZ7SIgxJLhVlOzPdOYviszzYm4GC3z56rLVkD2IxtiWPDPH7HX5JF4bqhd8fz+XRcI8s0gPpMVALotVm0oJtTblbsTBtkF+tdYLvFmeZM6fNhiSUz813T8i5uHx5O/zxZFvc9wt0+q7hkwQvJuIqpU5hFyrh/DovGHwMUjtqYeQBV4qEZdnW6mo8r/KkFejInVshBYg8Xy/BwkuUsqQ2xd0v5sMQG1hEF19uCzkOPpbFskWzYYeXgzgm22QLgTP1saENWdRZU2wWFc8S/mcwPziejGUbXP1NoKyeYX4y4Cu3AxJb+KpeZx25oFe8T8k3IxNkFx6avFJU2VIigVkYJXBFEEDrwC6P/6VWiKOsAxJZeJ2q8TnbGlMKShYnZMseMeCJvSfrxAlzDyAWhRKzegC3L9TfaZw9OrOLREOxHrKSTFWGQTXygDTt/hIfn8maqGEwlFEVs+oM0nGExl2E2PmDk8MSWevIfbIZHfEnbsrBfMnXtZkoxURMXpAqbNbjwDQwCCI7oiX6tcJHBaXaHj2aP9bG+k0wuM+/ggQaS7idDOcbOnlhFYEqfuoWgo2JHH/g4IDFTGpWVnrnDH41WHMI5ncgs2gH3PQAp/QmJNJna59QPzmzRrGZ+yUPXqegPzqAQfhEE1c3GOE/dBzTGQ3EUxPpew4zvKW3v8/5yt8mcqZijdCdNEEdYUC4mZqh0+htoXGoMdZSiL8RF0V6nIWx3a9oybR4JsdsBv0ul1nR/UtJRQlNExXYygpg7epmAsxjagp1AMyorQeYMn/PU4g+93DKUUjLf54+qCG/qgrDk0RBbcjp3A4Fa41ruT0EWY/ZXNXQwxm+5nMQ0mquKjQ/k0XTDHi+EOzSVzNavMgd+aJrBBxZwu1Pku9Q03a6i8LtmGwlsjtgK+Dkk9nZiJfiPFLH3zB334gKs3umgjlVk16zf/xF9Z7REOuYhr2CrW0ss2IFMlyIsZ42u7wMydD040Kc2vExlhc5SXF5Ww4IcrdJtiGcFg/68W9GTVhv8SdTnANwz+8TP6x6DvzL5wB9/2TtSc5vav9+fPLNumaZpbf+6T+8/0osElulmJfL8/MlesHWBRBHCWY76i9lsdt7PPsRdnH66bG6xVDgF3mmO+ttWFxKtHguu1+1e5/X1td1eSwjFUaowhoVxf7OdxJbacRiKkMorLhAiLYAHkw0kPoZmqZzpqI6CWBWkMGsr5sP8Y14LYtWAT6TaAbrRrzLD63Wl2rAcKIhVw0igQUG33K8szWmQccj551EQq4glafWgfJgsU4dPr9w7CmJV4QyJOLTSaXt0huSeURCrjhW30cLU/4x8mHwfgFdFQWwO9Gso3wse78R9louFO1E7kCgvCmLzwIFxUoUzqK27LxDDPgpi82FUTXzbNkz9Tzn11PO+ZrmWCmLzo58ADJu4gt0zT5W/+p4bBbF7hjAfxhucKp1a/0mArxkUxH4edOq/a96/fSWt+LO3X9r0/yQ6hKnjmtam83VCuMA/AH8S24lpXfxU+YZTgWMEW9TnbjmdPP3qfK0ILvAvwJo6T+9vHamsjwJfj/8C3T6eLaldoOUAAAAASUVORK5CYII=;" parent="1" vertex="1">
                    <mxGeometry x="225" y="229" width="104" height="23.57" as="geometry"/>
                </mxCell>
            </root>
        </mxGraphModel>
    </diagram>
</mxfile>